<?xml version="1.0" encoding="UTF-8" standalone="no"?>
<svg
   version="1.1"
   width="45"
   height="45"
   id="svg123"
   sodipodi:docname="DARK_KING_CHECK.svg"
   inkscape:version="1.1.2 (0a00cf5339, 2022-02-04)"
   xmlns:inkscape="http://www.inkscape.org/namespaces/inkscape"
   xmlns:sodipodi="http://sodipodi.sourceforge.net/DTD/sodipodi-0.dtd"
   xmlns:xlink="http://www.w3.org/1999/xlink"
   xmlns="http://www.w3.org/2000/svg"
   xmlns:svg="http://www.w3.org/2000/svg">
  <defs
     id="defs127">
    <radialGradient
       inkscape:collect="always"
       xlink:href="#linearGradient3736"
       id="radialGradient3738"
       cx="22.5"
       cy="23.094482"
       fx="22.5"
       fy="23.094482"
       r="21.790161"
       gradientUnits="userSpaceOnUse"
       gradientTransform="matrix(2.7863925,0,0,1,-40.193831,-0.66636322)" />
    <linearGradient
       inkscape:collect="always"
       id="linearGradient3736">
      <stop
         style="stop-color:#ff0000;stop-opacity:1;"
         offset="0"
         id="stop3732" />
      <stop
         style="stop-color:#ff0000;stop-opacity:0;"
         offset="1"
         id="stop3734" />
    </linearGradient>
  </defs>
  <sodipodi:namedview
     id="namedview125"
     pagecolor="#ffffff"
     bordercolor="#666666"
     borderopacity="1.0"
     inkscape:pageshadow="2"
     inkscape:pageopacity="0.0"
     inkscape:pagecheckerboard="0"
     showgrid="false"
     inkscape:zoom="12.680782"
     inkscape:cx="20.818906"
     inkscape:cy="13.051246"
     inkscape:window-width="1850"
     inkscape:window-height="1016"
     inkscape:window-x="0"
     inkscape:window-y="0"
     inkscape:window-maximized="1"
     inkscape:current-layer="layer4" />
  <g
     inkscape:groupmode="layer"
     id="layer4"
     inkscape:label="Layer 1"
     style="display:inline">
    <ellipse
       style="mix-blend-mode:normal;fill:url(#radialGradient3738);fill-opacity:1;fill-rule:evenodd;stroke-width:1.12518"
       id="path405"
       cx="22.5"
       cy="22.42812"
       rx="21.790001"
       ry="21.790161" />
  </g>
  <g
     inkscape:groupmode="layer"
     id="layer5"
     inkscape:label="Layer 2">
    <g
       style="fill:none;fill-opacity:1;fill-rule:evenodd;stroke:#000000;stroke-width:1.5;stroke-linecap:round;stroke-linejoin:round;stroke-miterlimit:4;stroke-dasharray:none;stroke-opacity:1"
       id="g121">
      <path
         d="M 22.5,11.63 L 22.5,6"
         style="fill:none; stroke:#000000; stroke-linejoin:miter;"
         id="path6570" />
      <path
         d="M 22.5,25 C 22.5,25 27,17.5 25.5,14.5 C 25.5,14.5 24.5,12 22.5,12 C 20.5,12 19.5,14.5 19.5,14.5 C 18,17.5 22.5,25 22.5,25"
         style="fill:#000000;fill-opacity:1; stroke-linecap:butt; stroke-linejoin:miter;"
         id="path111" />
      <path
         d="M 12.5,37 C 18,40.5 27,40.5 32.5,37 L 32.5,30 C 32.5,30 41.5,25.5 38.5,19.5 C 34.5,13 25,16 22.5,23.5 L 22.5,27 L 22.5,23.5 C 20,16 10.5,13 6.5,19.5 C 3.5,25.5 12.5,30 12.5,30 L 12.5,37"
         style="fill:#000000; stroke:#000000;"
         id="path113" />
      <path
         d="M 20,8 L 25,8"
         style="fill:none; stroke:#000000; stroke-linejoin:miter;"
         id="path115" />
      <path
         d="M 32,29.5 C 32,29.5 40.5,25.5 38.03,19.85 C 34.15,14 25,18 22.5,24.5 L 22.5,26.6 L 22.5,24.5 C 20,18 10.85,14 6.97,19.85 C 4.5,25.5 13,29.5 13,29.5"
         style="fill:none; stroke:#ffffff;"
         id="path117" />
      <path
         d="M 12.5,30 C 18,27 27,27 32.5,30 M 12.5,33.5 C 18,30.5 27,30.5 32.5,33.5 M 12.5,37 C 18,34 27,34 32.5,37"
         style="fill:none; stroke:#ffffff;"
         id="path119" />
    </g>
  </g>
</svg>
