<?xml version="1.0" encoding="UTF-8"?><svg xmlns="http://www.w3.org/2000/svg" xmlns:xlink="http://www.w3.org/1999/xlink" width="198pt" height="198pt" viewBox="0 0 198 198" version="1.1"><symbol overflow="visible" id="1"><path style="stroke:none;" d="M 27.90625 0 L 27.90625 -5.546875 C 27.90625 -13.347656 29.128906 -20.523438 31.578125 -27.078125 C 34.023438 -33.628906 37.5 -39.253906 42 -43.953125 C 46.5 -48.648438 51.800781 -52 57.90625 -54 C 51.101563 -58.394531 47.703125 -64.046875 47.703125 -70.953125 C 47.703125 -76.253906 49.347656 -80.851563 52.640625 -84.75 C 55.941406 -88.644531 60.644531 -91.546875 66.75 -93.453125 C 64.644531 -94.253906 62.96875 -95.503906 61.71875 -97.203125 C 60.46875 -98.898438 59.84375 -100.898438 59.84375 -103.203125 C 59.84375 -106.296875 61.21875 -108.742188 63.96875 -110.546875 C 66.71875 -112.347656 70.394531 -113.25 75 -113.25 C 79.601563 -113.25 83.28125 -112.347656 86.03125 -110.546875 C 88.78125 -108.742188 90.15625 -106.296875 90.15625 -103.203125 C 90.15625 -100.898438 89.503906 -98.875 88.203125 -97.125 C 86.898438 -95.375 85.25 -94.148438 83.25 -93.453125 C 89.25 -91.546875 93.921875 -88.644531 97.265625 -84.75 C 100.617188 -80.851563 102.296875 -76.253906 102.296875 -70.953125 C 102.296875 -64.046875 98.894531 -58.394531 92.09375 -54 C 98.300781 -52 103.65625 -48.648438 108.15625 -43.953125 C 112.65625 -39.253906 116.101563 -33.628906 118.5 -27.078125 C 120.894531 -20.523438 122.09375 -13.347656 122.09375 -5.546875 L 122.09375 0 Z M 36.90625 -8.25 L 113.09375 -8.25 C 113.09375 -14.75 111.84375 -20.820313 109.34375 -26.46875 C 106.84375 -32.125 103.316406 -37.078125 98.765625 -41.328125 C 94.222656 -45.578125 88.800781 -48.703125 82.5 -50.703125 L 82.5 -56.40625 C 90.394531 -60 94.34375 -64.945313 94.34375 -71.25 C 94.34375 -80.445313 88.644531 -87 77.25 -90.90625 L 77.25 -95.546875 C 81.550781 -97.347656 83.703125 -99.898438 83.703125 -103.203125 C 83.703125 -104.796875 82.925781 -106.164063 81.375 -107.3125 C 79.820313 -108.46875 77.695313 -109.046875 75 -109.046875 C 72.300781 -109.046875 70.175781 -108.46875 68.625 -107.3125 C 67.070313 -106.164063 66.296875 -104.796875 66.296875 -103.203125 C 66.296875 -99.898438 68.445313 -97.347656 72.75 -95.546875 L 72.75 -90.90625 C 61.351563 -87 55.65625 -80.445313 55.65625 -71.25 C 55.65625 -64.945313 59.601563 -60 67.5 -56.40625 L 67.5 -50.703125 C 61.300781 -48.703125 55.898438 -45.578125 51.296875 -41.328125 C 46.703125 -37.078125 43.15625 -32.125 40.65625 -26.46875 C 38.15625 -20.820313 36.90625 -14.75 36.90625 -8.25 Z M 36.90625 -8.25"/></symbol><g style="fill:rgb(0%,0%,0%);fill-opacity:1;"><use xlink:href="#1" x="24.000001" y="153.500699"/></g></svg>